<svg width="120" height="120" viewBox="0 0 120 120" fill="none" xmlns="http://www.w3.org/2000/svg">
  <defs>
    <linearGradient id="r" x1="12" y1="105" x2="105" y2="20" gradientUnits="userSpaceOnUse">
      <stop offset="0" stop-color="#6d28d9"/>
      <stop offset="0.55" stop-color="#9333ea"/>
      <stop offset="1" stop-color="#ec4899"/>
    </linearGradient>
    <linearGradient id="p" x1="40" y1="90" x2="80" y2="50" gradientUnits="userSpaceOnUse">
      <stop offset="0" stop-color="#312e81"/>
      <stop offset="1" stop-color="#6d28d9"/>
    </linearGradient>
    <linearGradient id="s" x1="40" y1="40" x2="84" y2="65" gradientUnits="userSpaceOnUse">
      <stop offset="0" stop-color="#a78bfa"/>
      <stop offset="1" stop-color="#c4b5fd"/>
    </linearGradient>
    <linearGradient id="h" x1="86" y1="48" x2="110" y2="74" gradientUnits="userSpaceOnUse">
      <stop offset="0" stop-color="#fb7185"/>
      <stop offset="1" stop-color="#f97316"/>
    </linearGradient>
    <clipPath id="c"><circle cx="60" cy="60" r="38"/></clipPath>
  </defs>
  <g clip-path="url(#c)">
    <g fill="url(#s)">
      <rect x="34" y="52" width="11" height="22" rx="1.5"/>
      <rect x="46" y="46" width="8" height="28" rx="1.5"/>
      <rect x="55" y="50" width="16" height="24" rx="1.5"/>
      <path d="M55 51a8 8 0 0 1 16 0z"/>
      <rect x="62" y="38" width="2" height="9" rx="1"/>
      <path d="M64 39h7l-2.2 2.2L71 43h-7z"/>
      <rect x="72" y="44" width="7" height="30" rx="1.5"/>
      <rect x="74" y="40" width="3" height="5" rx="1"/>
    </g>
    <g fill="url(#p)">
      <circle cx="48" cy="66" r="6.5"/>
      <circle cx="60" cy="63.5" r="7.5"/>
      <circle cx="72" cy="66" r="6.5"/>
      <path d="M36 92c0-9 5.5-16 12-16s12 7 12 16z"/>
      <path d="M48 94c0-10 6-18 12-18s12 8 12 18z"/>
      <path d="M60 92c0-9 5.5-16 12-16s12 7 12 16z"/>
    </g>
  </g>
  <path d="M96.77 29.14 A48 48 0 1 0 96.77 90.86 L86.04 81.86 A34 34 0 1 1 86.04 38.14 Z" fill="url(#r)"/>
  <path d="M88 50h18a6 6 0 0 1 6 6v10a6 6 0 0 1-6 6H98l-6 6v-6h-4a6 6 0 0 1-6-6V56a6 6 0 0 1 6-6Z" fill="url(#h)"/>
  <path d="M97 58.6c-1.4-2.7-5.6-2-5.6 1.2 0 2.2 2.9 4.3 5.6 6.2 2.7-1.9 5.6-4 5.6-6.2 0-3.2-4.2-3.9-5.6-1.2Z" fill="#fff"/>
</svg>
